<?xml version="1.0" encoding="UTF-8" standalone="no"?>
<!DOCTYPE svg PUBLIC "-//W3C//DTD SVG 1.1//EN" "http://www.w3.org/Graphics/SVG/1.1/DTD/svg11.dtd">
<svg width="100%" height="100%" viewBox="0 0 24 24" version="1.1" xmlns="http://www.w3.org/2000/svg" xmlns:xlink="http://www.w3.org/1999/xlink" xml:space="preserve" xmlns:serif="http://www.serif.com/" style="fill-rule:evenodd;clip-rule:evenodd;stroke-linejoin:round;stroke-miterlimit:2;">
    <path d="M6.89,12.16C6.741,12.162 6.595,12.119 6.47,12.037C6.345,11.955 6.248,11.838 6.19,11.7C6.15,11.609 6.13,11.51 6.13,11.41C6.13,11.211 6.209,11.021 6.35,10.88C6.421,10.81 6.506,10.755 6.6,10.72C6.736,10.663 6.885,10.648 7.029,10.677C7.174,10.705 7.306,10.776 7.41,10.88C7.55,11.021 7.629,11.211 7.629,11.41C7.629,11.609 7.55,11.799 7.41,11.94C7.342,12.009 7.261,12.065 7.172,12.102C7.083,12.14 6.987,12.16 6.89,12.16Z" style="fill:rgb(220,150,55);fill-rule:nonzero;"/>
    <path d="M9.73,15C9.634,15.02 9.536,15.02 9.44,15C9.351,14.962 9.269,14.908 9.2,14.84C9.107,14.76 9.038,14.656 9,14.54C8.98,14.444 8.98,14.346 9,14.25C9.002,14.052 9.081,13.862 9.22,13.72C9.292,13.655 9.373,13.601 9.46,13.56C9.563,13.516 9.675,13.496 9.787,13.501C9.899,13.506 10.009,13.536 10.107,13.589C10.206,13.642 10.292,13.717 10.358,13.807C10.425,13.898 10.47,14.002 10.49,14.112C10.511,14.222 10.507,14.336 10.478,14.444C10.449,14.553 10.396,14.653 10.323,14.738C10.25,14.823 10.159,14.891 10.056,14.936C9.954,14.982 9.842,15.003 9.73,15Z" style="fill:rgb(220,150,55);fill-rule:nonzero;"/>
    <path d="M14.24,10.49C14.143,10.49 14.048,10.47 13.96,10.43C13.867,10.395 13.781,10.34 13.71,10.27C13.569,10.13 13.49,9.939 13.49,9.74C13.49,9.64 13.51,9.541 13.55,9.45C13.588,9.361 13.642,9.279 13.71,9.21C13.79,9.131 13.89,9.075 14,9.05C14.136,8.993 14.285,8.978 14.429,9.007C14.574,9.035 14.706,9.106 14.81,9.21C14.915,9.315 14.986,9.448 15.015,9.594C15.044,9.739 15.029,9.89 14.972,10.027C14.916,10.164 14.82,10.281 14.696,10.363C14.573,10.446 14.428,10.49 14.28,10.49L14.24,10.49Z" style="fill:rgb(220,150,55);fill-rule:nonzero;"/>
    <path d="M11.4,7.65C11.201,7.65 11.011,7.571 10.87,7.43C10.799,7.36 10.744,7.274 10.71,7.18C10.671,7.092 10.651,6.996 10.65,6.9C10.649,6.801 10.668,6.704 10.706,6.612C10.743,6.521 10.799,6.439 10.87,6.37C11.013,6.234 11.203,6.159 11.4,6.159C11.597,6.159 11.787,6.234 11.93,6.37C12.071,6.511 12.15,6.701 12.15,6.9C12.148,7.098 12.069,7.288 11.93,7.43C11.79,7.571 11.599,7.65 11.4,7.65Z" style="fill:rgb(220,150,55);fill-rule:nonzero;"/>
    <path d="M12.54,17.82C12.338,17.82 12.144,17.741 12,17.6C11.86,17.459 11.781,17.269 11.781,17.07C11.781,16.871 11.86,16.681 12,16.54C12.069,16.467 12.155,16.412 12.25,16.38C12.386,16.323 12.535,16.308 12.679,16.337C12.824,16.365 12.956,16.436 13.06,16.54C13.165,16.645 13.236,16.779 13.265,16.924C13.294,17.069 13.279,17.22 13.222,17.357C13.166,17.494 13.07,17.611 12.946,17.693C12.823,17.776 12.678,17.82 12.53,17.82L12.54,17.82Z" style="fill:rgb(220,150,55);fill-rule:nonzero;"/>
    <path d="M17.06,13.3C16.861,13.3 16.671,13.221 16.53,13.08C16.459,13.011 16.402,12.93 16.36,12.84C16.323,12.748 16.306,12.649 16.31,12.55C16.31,12.351 16.389,12.16 16.53,12.02C16.67,11.879 16.861,11.8 17.06,11.8C17.259,11.8 17.45,11.879 17.59,12.02C17.731,12.16 17.81,12.351 17.81,12.55C17.81,12.65 17.79,12.749 17.75,12.84C17.712,12.929 17.658,13.011 17.59,13.08C17.448,13.219 17.258,13.298 17.06,13.3Z" style="fill:rgb(220,150,55);fill-rule:nonzero;"/>
    <path d="M12,22.84C11.508,22.84 11.02,22.743 10.565,22.554C10.111,22.366 9.698,22.089 9.35,21.74L2.25,14.64C1.548,13.937 1.153,12.984 1.153,11.99C1.153,10.996 1.548,10.043 2.25,9.34L9.35,2.24C10.053,1.538 11.006,1.143 12,1.143C12.994,1.143 13.947,1.538 14.65,2.24L21.75,9.34C22.099,9.687 22.376,10.101 22.565,10.555C22.754,11.01 22.851,11.498 22.851,11.99C22.851,12.482 22.754,12.97 22.565,13.425C22.376,13.88 22.099,14.293 21.75,14.64L14.65,21.74C14.302,22.089 13.889,22.366 13.435,22.554C12.98,22.743 12.492,22.84 12,22.84ZM12,2.64C11.705,2.639 11.412,2.697 11.139,2.81C10.866,2.924 10.618,3.09 10.41,3.3L3.31,10.4C2.889,10.822 2.652,11.394 2.652,11.99C2.652,12.586 2.889,13.158 3.31,13.58L10.41,20.68C10.832,21.101 11.404,21.338 12,21.338C12.596,21.338 13.168,21.101 13.59,20.68L20.69,13.58C21.111,13.158 21.348,12.586 21.348,11.99C21.348,11.394 21.111,10.822 20.69,10.4L13.59,3.3C13.382,3.09 13.134,2.924 12.861,2.81C12.588,2.697 12.296,2.639 12,2.64Z" style="fill:rgb(220,150,55);fill-rule:nonzero;"/>
</svg>
