<?xml version="1.0" encoding="UTF-8" standalone="no"?>
<!DOCTYPE svg PUBLIC "-//W3C//DTD SVG 1.1//EN" "http://www.w3.org/Graphics/SVG/1.1/DTD/svg11.dtd">
<svg width="100%" height="100%" viewBox="0 0 202 202" version="1.1" xmlns="http://www.w3.org/2000/svg" xmlns:xlink="http://www.w3.org/1999/xlink" xml:space="preserve" xmlns:serif="http://www.serif.com/" style="fill-rule:evenodd;clip-rule:evenodd;stroke-linejoin:round;stroke-miterlimit:2;">
    <g>
        <g>
            <path d="M168.738,78.689C162.539,67.323 146.732,62.77 138.321,60.541C144.749,53.212 157.683,37.826 154.787,24.269C153.409,17.856 148.764,12.81 140.983,9.274C140.278,8.952 138.013,7.717 135.94,6.59C129.004,2.821 125.873,1.193 124.459,0.842C120.354,-0.178 116.407,-0.275 112.849,0.574C98.415,3.974 92.836,21.364 90.123,30.003C83.813,24.817 71.534,15.022 59.527,15.022C57.952,15.022 56.417,15.194 54.964,15.537C49.363,16.854 44.75,20.626 41.228,26.75C41.088,27.004 40.484,28.01 39.675,29.352L39.485,29.667C35.648,36.019 33.884,38.986 33.533,39.745C29.847,47.873 29.435,55.245 32.32,61.644C37.67,73.519 52.691,78.561 60.793,81.059C54.942,88.217 43.411,103.08 46.542,116.375C48.099,122.946 52.941,128.092 60.954,131.685C61.423,131.896 63.846,133.263 65.8,134.362L66.219,134.598C72.317,138.048 74.511,139.243 75.495,139.558C80.566,141.158 85.405,141.455 89.739,140.435C102.515,137.425 108.503,123.514 111.144,116.353C118.491,129.187 131.275,159.596 116.856,198.445L116.516,199.343L122.915,201.712L123.244,200.81C136.618,164.778 127.857,135.228 120.284,119.219C128.1,123.907 135.172,126.276 141.363,126.276C143.106,126.276 144.802,126.086 146.406,125.711C153.213,124.108 158.528,119.205 162.192,111.141C162.403,110.672 164.346,107.294 165.073,106.009C168.416,100.186 169.572,98.1 169.858,97.234C172.074,90.352 171.709,84.118 168.738,78.689ZM164.2,95.302C163.942,95.953 161.401,100.409 160.027,102.807L159.895,103.04C158.023,106.304 157.036,108.036 156.746,108.673C153.887,114.965 149.943,118.737 145.029,119.893C143.852,120.165 142.595,120.312 141.289,120.312C130.416,120.312 118.08,110.799 113.317,107.095L112.569,106.236L112.39,106.376L109.162,103.864L106.331,112.103C104.209,118.073 99.252,132.059 88.362,134.628C85.095,135.401 81.315,135.136 77.35,133.884C76.641,133.626 71.899,130.956 69.158,129.4C66.059,127.65 64.126,126.566 63.407,126.24C57.169,123.449 53.461,119.673 52.366,115.006C49.757,103.926 61.725,89.335 66.238,83.841C67.204,82.649 67.913,81.794 68.321,81.185L70.336,78.136L66.947,76.772C66.192,76.464 65.065,76.113 63.629,75.673C56.693,73.554 42.26,69.142 37.765,59.185C35.621,54.418 36.022,48.71 38.971,42.228C39.3,41.544 42.958,35.475 44.601,32.744C45.549,31.18 46.265,29.985 46.415,29.713C49.078,25.089 52.417,22.273 56.332,21.346C57.359,21.106 58.444,20.985 59.582,20.985C69.789,20.985 81.807,30.884 86.949,35.114C88.284,36.216 89.25,37.014 89.959,37.487L92.98,39.477L94.365,36.149C94.773,35.172 95.202,33.819 95.75,32.066C98.262,24.021 102.943,9.04 114.217,6.384C116.858,5.765 119.868,5.854 123.01,6.627C123.966,6.885 130.186,10.263 132.845,11.705L133.085,11.837C135.905,13.365 137.666,14.317 138.507,14.704C144.477,17.42 147.995,21.053 148.943,25.516C151.344,36.732 138.518,51.294 132.935,57.633C131.758,58.968 130.981,59.845 130.562,60.475L128.49,63.553L131.94,64.917C132.76,65.243 133.98,65.568 135.805,66.051C143.102,67.973 158.28,71.974 163.502,81.551C165.675,85.539 165.897,90.051 164.2,95.302Z" style="fill:rgb(220,150,55);fill-rule:nonzero;"/>
            <path d="M100.822,52.459C99.426,52.459 98.023,52.624 96.656,52.946C86.918,55.244 80.859,65.035 83.153,74.773C85.096,83.004 92.361,88.756 100.815,88.756L100.822,88.756C102.207,88.756 103.614,88.595 104.981,88.269C109.694,87.16 113.692,84.279 116.24,80.149C118.802,76.023 119.59,71.152 118.484,66.442C116.544,58.21 109.276,52.459 100.822,52.459ZM110.6,76.659C108.975,79.275 106.445,81.104 103.453,81.809C102.587,82.013 101.699,82.113 100.812,82.113C95.447,82.113 90.845,78.466 89.621,73.248C88.164,67.071 92.005,60.865 98.182,59.409C99.048,59.205 99.936,59.101 100.823,59.101C106.188,59.101 110.79,62.748 112.014,67.966C112.726,70.955 112.217,74.04 110.6,76.659Z" style="fill:rgb(220,150,55);fill-rule:nonzero;"/>
        </g>
    </g>
</svg>
